<svg width="169" height="169" viewBox="0 0 169 169" fill="none" xmlns="http://www.w3.org/2000/svg">
<path d="M168.641 84.317L139.047 96.6491L156.589 132.331L127.698 118.517L133.906 154.008L108.036 133.155L105.708 166.591L84.3229 138.192L67.099 168.64L60.6042 133.155L29.9427 151.193L40.9427 118.517L9.84375 124.779L29.5938 96.6491L0 88.4098L29.5938 71.9849L9.84375 43.8613L40.9427 50.123L34.7344 14.6264L60.6042 35.4786L67.099 0L84.3229 30.4418L97.3229 0L108.036 35.4786L137.297 17.5182L127.698 50.123L158.797 43.8613L139.047 71.9849L168.641 84.317Z" fill="#2D4F2B"/>
</svg>
